<?xml version="1.0" standalone="no"?>
<!DOCTYPE svg PUBLIC "-//W3C//DTD SVG 20010904//EN"
 "http://www.w3.org/TR/2001/REC-SVG-20010904/DTD/svg10.dtd">
<svg version="1.0" xmlns="http://www.w3.org/2000/svg"
 width="400.000000pt" height="400.000000pt" viewBox="0 0 400.000000 400.000000"
 preserveAspectRatio="xMidYMid meet">
<metadata>
Created by potrace 1.14, written by Peter Selinger 2001-2017
</metadata>
<g transform="translate(0.000000,400.000000) scale(0.100000,-0.100000)"
fill="#000000" stroke="none">
<path d="M0 2000 l0 -2000 2000 0 2000 0 0 2000 0 2000 -2000 0 -2000 0 0
-2000z m737 314 c57 -19 66 -26 58 -46 -6 -14 -12 -13 -58 4 -39 15 -68 19
-117 16 -110 -8 -190 -61 -239 -160 -52 -104 -39 -224 33 -312 75 -92 207
-129 316 -87 41 16 56 18 62 8 13 -21 9 -25 -49 -47 -150 -56 -331 18 -404
166 -35 71 -35 217 0 288 40 81 121 149 211 177 43 13 138 10 187 -7z m1388
-14 c68 -34 95 -77 95 -150 0 -82 -36 -129 -128 -166 -1 -1 29 -68 68 -149 38
-81 70 -149 70 -151 0 -2 -10 -4 -22 -4 -20 1 -33 23 -92 150 l-70 150 -58 0
-58 0 0 -150 c0 -143 -1 -150 -20 -150 -20 0 -20 7 -20 326 l0 326 93 -4 c73
-3 103 -9 142 -28z m1473 5 c47 -22 52 -27 42 -44 -10 -19 -11 -19 -53 4 -84
49 -174 26 -203 -52 -33 -85 -1 -127 129 -174 116 -42 172 -91 182 -160 14
-93 -49 -177 -148 -199 -45 -11 -62 -10 -110 4 -69 20 -133 71 -116 92 9 11
19 8 54 -17 84 -60 178 -58 242 6 29 29 33 39 33 85 0 47 -4 56 -37 90 -28 27
-60 44 -121 64 -97 33 -147 73 -157 129 -28 150 112 242 263 172z m-2380 -132
c49 -82 97 -163 107 -182 l17 -33 12 23 c7 13 47 81 88 150 42 70 83 141 92
158 12 22 24 31 41 31 14 0 25 -2 25 -5 0 -4 -51 -90 -171 -290 l-54 -90 -5
-130 c-5 -125 -6 -130 -27 -133 -23 -3 -23 -2 -23 120 l0 123 -101 170 c-56
94 -110 185 -121 203 l-20 32 25 0 c22 0 38 -21 115 -147z m1364 -95 c3 -222
5 -246 24 -283 56 -109 247 -112 309 -5 18 32 20 56 23 283 3 237 4 247 23
247 18 0 19 -9 19 -236 0 -158 -4 -250 -12 -278 -27 -88 -121 -143 -231 -134
-75 6 -126 35 -162 93 l-30 48 -3 254 c-3 247 -3 253 17 253 19 0 20 -8 23
-242z"/>
<path d="M1930 2149 l0 -132 78 5 c122 7 172 47 172 136 0 80 -60 122 -175
122 l-75 0 0 -131z"/>
</g>
</svg>
